<mxfile host="app.diagrams.net" agent="Mozilla/5.0 (X11; Linux x86_64) AppleWebKit/537.36 (KHTML, like Gecko) Chrome/130.0.0.0 Safari/537.36" version="24.8.3">
  <diagram name="Page-1" id="8oMJt34dLWv4q8Kl3ylM">
    <mxGraphModel dx="1434" dy="1923" grid="1" gridSize="10" guides="1" tooltips="1" connect="1" arrows="1" fold="1" page="1" pageScale="1" pageWidth="827" pageHeight="1169" math="0" shadow="0">
      <root>
        <mxCell id="0" />
        <mxCell id="1" parent="0" />
        <mxCell id="5YGbhLtk8DIFrU5zzdEM-1" value="Actor" style="shape=umlActor;verticalLabelPosition=bottom;verticalAlign=top;html=1;outlineConnect=0;" vertex="1" parent="1">
          <mxGeometry x="150" y="-30" width="70" height="130" as="geometry" />
        </mxCell>
        <mxCell id="5YGbhLtk8DIFrU5zzdEM-8" style="edgeStyle=orthogonalEdgeStyle;rounded=0;orthogonalLoop=1;jettySize=auto;html=1;exitX=1;exitY=0.5;exitDx=0;exitDy=0;entryX=0;entryY=0.5;entryDx=0;entryDy=0;" edge="1" parent="1" source="5YGbhLtk8DIFrU5zzdEM-2" target="5YGbhLtk8DIFrU5zzdEM-3">
          <mxGeometry relative="1" as="geometry" />
        </mxCell>
        <mxCell id="5YGbhLtk8DIFrU5zzdEM-9" value="Store version" style="edgeLabel;html=1;align=center;verticalAlign=middle;resizable=0;points=[];" vertex="1" connectable="0" parent="5YGbhLtk8DIFrU5zzdEM-8">
          <mxGeometry relative="1" as="geometry">
            <mxPoint as="offset" />
          </mxGeometry>
        </mxCell>
        <mxCell id="5YGbhLtk8DIFrU5zzdEM-2" value="Frontend" style="rounded=0;whiteSpace=wrap;html=1;" vertex="1" parent="1">
          <mxGeometry x="280" y="230" width="110" height="60" as="geometry" />
        </mxCell>
        <mxCell id="5YGbhLtk8DIFrU5zzdEM-11" style="edgeStyle=orthogonalEdgeStyle;rounded=0;orthogonalLoop=1;jettySize=auto;html=1;" edge="1" parent="1" source="5YGbhLtk8DIFrU5zzdEM-3" target="5YGbhLtk8DIFrU5zzdEM-10">
          <mxGeometry relative="1" as="geometry" />
        </mxCell>
        <mxCell id="5YGbhLtk8DIFrU5zzdEM-3" value="Backend" style="rounded=0;whiteSpace=wrap;html=1;" vertex="1" parent="1">
          <mxGeometry x="540" y="230" width="120" height="60" as="geometry" />
        </mxCell>
        <mxCell id="5YGbhLtk8DIFrU5zzdEM-4" value="" style="ellipse;shape=cloud;whiteSpace=wrap;html=1;" vertex="1" parent="1">
          <mxGeometry x="770" y="180" width="300" height="140" as="geometry" />
        </mxCell>
        <mxCell id="5YGbhLtk8DIFrU5zzdEM-6" value="" style="endArrow=classic;html=1;rounded=0;exitX=0.5;exitY=0.5;exitDx=0;exitDy=0;exitPerimeter=0;entryX=-0.017;entryY=0.4;entryDx=0;entryDy=0;entryPerimeter=0;" edge="1" parent="1" source="5YGbhLtk8DIFrU5zzdEM-1" target="5YGbhLtk8DIFrU5zzdEM-2">
          <mxGeometry width="50" height="50" relative="1" as="geometry">
            <mxPoint x="190" y="430" as="sourcePoint" />
            <mxPoint x="240" y="380" as="targetPoint" />
          </mxGeometry>
        </mxCell>
        <mxCell id="5YGbhLtk8DIFrU5zzdEM-7" value="Add application version" style="edgeLabel;html=1;align=center;verticalAlign=middle;resizable=0;points=[];" vertex="1" connectable="0" parent="5YGbhLtk8DIFrU5zzdEM-6">
          <mxGeometry x="-0.1862" y="-1" relative="1" as="geometry">
            <mxPoint as="offset" />
          </mxGeometry>
        </mxCell>
        <mxCell id="5YGbhLtk8DIFrU5zzdEM-10" value="" style="shape=cylinder3;whiteSpace=wrap;html=1;boundedLbl=1;backgroundOutline=1;size=15;" vertex="1" parent="1">
          <mxGeometry x="690" y="120" width="60" height="80" as="geometry" />
        </mxCell>
        <mxCell id="5YGbhLtk8DIFrU5zzdEM-13" style="edgeStyle=orthogonalEdgeStyle;rounded=0;orthogonalLoop=1;jettySize=auto;html=1;exitX=0.5;exitY=0.5;exitDx=0;exitDy=0;exitPerimeter=0;entryX=0.5;entryY=1;entryDx=0;entryDy=0;" edge="1" parent="1" source="5YGbhLtk8DIFrU5zzdEM-12" target="5YGbhLtk8DIFrU5zzdEM-2">
          <mxGeometry relative="1" as="geometry" />
        </mxCell>
        <mxCell id="5YGbhLtk8DIFrU5zzdEM-14" value="See all his application versions" style="edgeLabel;html=1;align=center;verticalAlign=middle;resizable=0;points=[];" vertex="1" connectable="0" parent="5YGbhLtk8DIFrU5zzdEM-13">
          <mxGeometry x="-0.4025" y="2" relative="1" as="geometry">
            <mxPoint as="offset" />
          </mxGeometry>
        </mxCell>
        <mxCell id="5YGbhLtk8DIFrU5zzdEM-12" value="Actor" style="shape=umlActor;verticalLabelPosition=bottom;verticalAlign=top;html=1;outlineConnect=0;" vertex="1" parent="1">
          <mxGeometry x="20" y="270" width="80" height="140" as="geometry" />
        </mxCell>
        <mxCell id="5YGbhLtk8DIFrU5zzdEM-16" style="edgeStyle=orthogonalEdgeStyle;rounded=0;orthogonalLoop=1;jettySize=auto;html=1;exitX=0.5;exitY=0.5;exitDx=0;exitDy=0;exitPerimeter=0;entryX=0.75;entryY=1;entryDx=0;entryDy=0;" edge="1" parent="1" source="5YGbhLtk8DIFrU5zzdEM-15" target="5YGbhLtk8DIFrU5zzdEM-2">
          <mxGeometry relative="1" as="geometry" />
        </mxCell>
        <mxCell id="5YGbhLtk8DIFrU5zzdEM-17" value="See deployed applications" style="edgeLabel;html=1;align=center;verticalAlign=middle;resizable=0;points=[];" vertex="1" connectable="0" parent="5YGbhLtk8DIFrU5zzdEM-16">
          <mxGeometry x="-0.4547" y="2" relative="1" as="geometry">
            <mxPoint as="offset" />
          </mxGeometry>
        </mxCell>
        <mxCell id="5YGbhLtk8DIFrU5zzdEM-15" value="Actor" style="shape=umlActor;verticalLabelPosition=bottom;verticalAlign=top;html=1;outlineConnect=0;" vertex="1" parent="1">
          <mxGeometry x="45" y="470" width="65" height="130" as="geometry" />
        </mxCell>
        <mxCell id="5YGbhLtk8DIFrU5zzdEM-19" style="edgeStyle=orthogonalEdgeStyle;rounded=0;orthogonalLoop=1;jettySize=auto;html=1;exitX=0.5;exitY=0.5;exitDx=0;exitDy=0;exitPerimeter=0;entryX=1;entryY=1;entryDx=0;entryDy=0;" edge="1" parent="1" source="5YGbhLtk8DIFrU5zzdEM-18" target="5YGbhLtk8DIFrU5zzdEM-2">
          <mxGeometry relative="1" as="geometry" />
        </mxCell>
        <mxCell id="5YGbhLtk8DIFrU5zzdEM-20" value="Deploy/delete application" style="edgeLabel;html=1;align=center;verticalAlign=middle;resizable=0;points=[];" vertex="1" connectable="0" parent="5YGbhLtk8DIFrU5zzdEM-19">
          <mxGeometry x="-0.6584" relative="1" as="geometry">
            <mxPoint as="offset" />
          </mxGeometry>
        </mxCell>
        <mxCell id="5YGbhLtk8DIFrU5zzdEM-18" value="Actor" style="shape=umlActor;verticalLabelPosition=bottom;verticalAlign=top;html=1;outlineConnect=0;" vertex="1" parent="1">
          <mxGeometry x="170" y="585" width="65" height="130" as="geometry" />
        </mxCell>
      </root>
    </mxGraphModel>
  </diagram>
</mxfile>
